<svg width="104" height="38" viewBox="0 0 104 38" fill="none" xmlns="http://www.w3.org/2000/svg">
<path d="M3.02659 15.5001C1.64596 15.4854 0.51483 16.5927 0.500142 17.9733C0.485455 19.354 1.59277 20.4851 2.97341 20.4998L3.02659 15.5001ZM102.748 20.829C103.735 19.8631 103.752 18.2803 102.786 17.2936L87.0463 1.21537C86.0804 0.228729 84.4976 0.211891 83.5109 1.17776C82.5243 2.14363 82.5075 3.72645 83.4733 4.7131L97.4642 19.0049L83.1724 32.9958C82.1858 33.9616 82.169 35.5445 83.1348 36.5311C84.1007 37.5177 85.6835 37.5346 86.6702 36.5687L102.748 20.829ZM2.97341 20.4998L100.973 21.5423L101.026 16.5426L3.02659 15.5001L2.97341 20.4998Z" fill="black"/>
</svg>
